<?xml version="1.0" encoding="UTF-8" standalone="no"?>
<!-- Created with Inkscape (http://www.inkscape.org/) -->

<svg
   xmlns:dc="http://purl.org/dc/elements/1.1/"
   xmlns:cc="http://creativecommons.org/ns#"
   xmlns:rdf="http://www.w3.org/1999/02/22-rdf-syntax-ns#"
   xmlns:svg="http://www.w3.org/2000/svg"
   xmlns="http://www.w3.org/2000/svg"
   xmlns:sodipodi="http://sodipodi.sourceforge.net/DTD/sodipodi-0.dtd"
   xmlns:inkscape="http://www.inkscape.org/namespaces/inkscape"
   width="32"
   height="32"
   id="svg2"
   version="1.1"
   inkscape:version="0.48.3.1 r9886"
   sodipodi:docname="New document 1">
  <defs
     id="defs4" />
  <sodipodi:namedview
     id="base"
     pagecolor="#ffffff"
     bordercolor="#666666"
     borderopacity="1.0"
     inkscape:pageopacity="0.0"
     inkscape:pageshadow="2"
     inkscape:zoom="2.6675676"
     inkscape:cx="-39.387031"
     inkscape:cy="0"
     inkscape:document-units="px"
     inkscape:current-layer="svg2"
     showgrid="false"
     inkscape:window-width="1366"
     inkscape:window-height="722"
     inkscape:window-x="0"
     inkscape:window-y="24"
     inkscape:window-maximized="1" />
  <metadata
     id="metadata7">
    <rdf:RDF>
      <cc:Work
         rdf:about="">
        <dc:format>image/svg+xml</dc:format>
        <dc:type
           rdf:resource="http://purl.org/dc/dcmitype/StillImage" />
        <dc:title></dc:title>
      </cc:Work>
    </rdf:RDF>
  </metadata>
  <g
     style="font-size:40px;font-style:normal;font-variant:normal;font-weight:normal;font-stretch:normal;line-height:125%;letter-spacing:0px;word-spacing:0px;fill:#000000;fill-opacity:1;stroke:none;font-family:social-icons2;-inkscape-font-specification:social-icons2"
     id="text2985"
     transform="matrix(0.49944295,0,0,0.49944295,4.363352,12.059109)">
    <path
       d="M 7.3625939,-1.8415801 C 7.4159269,-2.2948893 7.6159267,-2.7215555 7.9625939,-3.1215801 L 12.762594,-7.9215801 C 13.135921,-8.24155 13.415921,-8.1882167 13.602594,-7.7615801 L 17.482594,-0.48158012 C 17.695917,-0.05489152 17.62925,0.3584414 17.282594,0.75841988 L 15.522594,2.5184199 C 15.202586,2.8384389 15.015919,3.2517718 14.962594,3.7584199 14.962586,4.5584372 15.375919,5.5851028 16.202594,6.8384199 17.029251,8.091767 17.842583,9.1584326 18.642594,10.03842 L 19.882594,11.31842 C 20.255914,11.691763 20.735914,12.145096 21.322594,12.67842 21.909246,13.211762 22.869245,13.931761 24.202594,14.83842 25.535909,15.745093 26.602574,16.198426 27.402594,16.19842 27.90924,16.198426 28.335906,16.025092 28.682594,15.67842 L 30.762594,13.59842 C 31.135903,13.225095 31.535903,13.171762 31.962594,13.43842 L 38.962594,17.55842 C 39.149229,17.665091 39.255895,17.798424 39.282594,17.95842 39.309228,18.118424 39.255895,18.278423 39.122594,18.43842 L 34.322594,23.23842 C 33.922567,23.585085 33.495901,23.785085 33.042594,23.83842 31.735903,24.025084 30.255904,23.838418 28.602594,23.27842 26.949241,22.718419 25.429242,21.99842 24.042594,21.11842 22.655912,20.238422 21.36258,19.318422 20.162594,18.35842 18.962582,17.398424 18.002583,16.598425 17.282594,15.95842 L 16.242594,14.95842 15.162594,13.83842 C 14.709253,13.358428 13.949254,12.438429 12.882594,11.07842 11.815923,9.718432 10.869257,8.3851 10.042594,7.0784199 9.2159251,5.7717693 8.5225925,4.2784375 7.9625939,2.5984199 7.4025936,0.91844084 7.2025938,-0.56155768 7.3625939,-1.8415801"
       id="path2990"
       inkscape:connector-curvature="0" />
  </g>
</svg>
