<?xml version="1.0" encoding="UTF-8" standalone="no"?>
<!-- Created with Inkscape (http://www.inkscape.org/) -->

<svg
   xmlns:dc="http://purl.org/dc/elements/1.1/"
   xmlns:cc="http://creativecommons.org/ns#"
   xmlns:rdf="http://www.w3.org/1999/02/22-rdf-syntax-ns#"
   xmlns:svg="http://www.w3.org/2000/svg"
   xmlns="http://www.w3.org/2000/svg"
   xmlns:sodipodi="http://sodipodi.sourceforge.net/DTD/sodipodi-0.dtd"
   xmlns:inkscape="http://www.inkscape.org/namespaces/inkscape"
   width="32"
   height="32"
   viewBox="0 0 31.999999 0"
   id="svg2"
   version="1.1"
   inkscape:version="0.92.3 (2405546, 2018-03-11)"
   sodipodi:docname="icon-download-black.svg">
  <defs
     id="defs4" />
  <sodipodi:namedview
     id="base"
     pagecolor="#ffffff"
     bordercolor="#666666"
     borderopacity="1.0"
     inkscape:pageopacity="0.0"
     inkscape:pageshadow="2"
     inkscape:zoom="1.979899"
     inkscape:cx="-128.40056"
     inkscape:cy="-10.289271"
     inkscape:document-units="px"
     inkscape:current-layer="svg2"
     showgrid="false"
     units="px"
     borderlayer="true"
     inkscape:window-width="1920"
     inkscape:window-height="1017"
     inkscape:window-x="-8"
     inkscape:window-y="-8"
     inkscape:window-maximized="1" />
  <metadata
     id="metadata7">
    <rdf:RDF>
      <cc:Work
         rdf:about="">
        <dc:format>image/svg+xml</dc:format>
        <dc:type
           rdf:resource="http://purl.org/dc/dcmitype/StillImage" />
        <dc:title />
      </cc:Work>
    </rdf:RDF>
  </metadata>
  <path
     d="m 23.51678,8.651966 q 0.46021,0.46021 0.46021,1.135186 0,0.674976 -0.46021,1.104508 L 16,18.377756 8.4832222,10.89166 q -0.46021,-0.460212 -0.46021,-1.104508 0,-0.644294 0.46021,-1.135186 0.460212,-0.490892 1.104506,-0.460212 0.7056578,0 1.1658678,0.460212 l 3.620326,3.681688 V 1.626078 q 0,-0.644294 0.490892,-1.135186 Q 15.355706,0 16,0 q 0.644296,0 1.135188,0.490892 0.490892,0.490892 0.46021,1.135186 v 10.707576 l 3.651008,-3.681688 q 0.42953,-0.42953 1.135186,-0.42953 0.705656,0 1.135188,0.42953 z m 6.81112,13.744966 0.06136,7.97699 q 0,0.674976 -0.490892,1.135186 Q 29.407478,31.96932 28.763182,32 H 3.2368182 q -0.6749758,0 -1.1351868,-0.490892 -0.460211,-0.49089 -0.4908916,-1.135186 0,-7.97699 0.030682,-7.97699 0,-0.337488 0.06136,-0.490892 l 3.2214764,-9.572386 q 0.368168,-1.135188 1.472674,-1.135188 h 0.36817 q 0.245446,0.552254 0.552252,0.85906 l 2.393098,2.331736 h -2.147652 l -2.638542,8.00767 H 27.075742 L 24.4372,14.389262 h -2.147652 l 2.362418,-2.331736 q 0.306806,-0.306806 0.582932,-0.85906 h 0.337488 q 1.135188,0 1.503356,1.135188 l 3.221478,9.572386 q 0.03068,0.1534 0.03068,0.490892 z"
     id="path3343"
     inkscape:connector-curvature="0"
     style="stroke-width:1" />
</svg>
