<?xml version="1.0" encoding="UTF-8" standalone="no"?>
<!-- Created with Inkscape (http://www.inkscape.org/) -->

<svg
   xmlns:dc="http://purl.org/dc/elements/1.1/"
   xmlns:cc="http://creativecommons.org/ns#"
   xmlns:rdf="http://www.w3.org/1999/02/22-rdf-syntax-ns#"
   xmlns:svg="http://www.w3.org/2000/svg"
   xmlns="http://www.w3.org/2000/svg"
   xmlns:sodipodi="http://sodipodi.sourceforge.net/DTD/sodipodi-0.dtd"
   xmlns:inkscape="http://www.inkscape.org/namespaces/inkscape"
   width="32"
   height="32"
   id="svg3011"
   version="1.1"
   inkscape:version="0.92.3 (2405546, 2018-03-11)"
   sodipodi:docname="icon-email-black.svg">
  <defs
     id="defs3013" />
  <sodipodi:namedview
     id="base"
     pagecolor="#ffffff"
     bordercolor="#666666"
     borderopacity="1.0"
     inkscape:pageopacity="0.0"
     inkscape:pageshadow="2"
     inkscape:zoom="2.1456522"
     inkscape:cx="-87.52786"
     inkscape:cy="34.285714"
     inkscape:document-units="px"
     inkscape:current-layer="svg3011"
     showgrid="false"
     inkscape:window-width="1920"
     inkscape:window-height="1017"
     inkscape:window-x="-8"
     inkscape:window-y="-8"
     inkscape:window-maximized="1" />
  <metadata
     id="metadata3016">
    <rdf:RDF>
      <cc:Work
         rdf:about="">
        <dc:format>image/svg+xml</dc:format>
        <dc:type
           rdf:resource="http://purl.org/dc/dcmitype/StillImage" />
        <dc:title />
      </cc:Work>
    </rdf:RDF>
  </metadata>
  <path
     d="M 2.4e-6,24.887172 V 7.112823 L 0.0925772,6.5265164 10.553523,15.475407 0.1234354,25.504337 C 0.0411467,25.216328 2.4e-6,25.010606 2.4e-6,24.887172 M 1.3886236,5.2921866 c 0.144004,-0.061695 0.318867,-0.092553 0.52459,-0.092575 H 30.086792 c 0.185119,2.16e-5 0.370268,0.03088 0.555448,0.092575 L 20.150437,14.271936 18.761816,15.382833 16.015432,17.635485 13.269048,15.382833 11.880427,14.271936 1.3886236,5.2921866 m 0.030858,21.4156214 10.5226624,-10.090646 4.073288,3.301832 4.073288,-3.301832 10.522662,10.090646 c -0.164608,0.06172 -0.339471,0.09258 -0.52459,0.09258 H 1.9132136 c -0.164579,0 -0.329156,-0.03086 -0.493732,-0.09258 M 21.477341,15.475407 31.907428,6.5265164 c 0.06169,0.1851695 0.09254,0.3806049 0.09257,0.5863066 v 17.774349 c -3.3e-5,0.185151 -0.03089,0.390872 -0.09257,0.617165 L 21.477341,15.475407"
     id="path3073"
     inkscape:connector-curvature="0"
     style="stroke-width:1" />
</svg>
