<?xml version="1.0" encoding="UTF-8" standalone="no"?>
<!-- Created with Inkscape (http://www.inkscape.org/) -->

<svg
   xmlns:dc="http://purl.org/dc/elements/1.1/"
   xmlns:cc="http://creativecommons.org/ns#"
   xmlns:rdf="http://www.w3.org/1999/02/22-rdf-syntax-ns#"
   xmlns:svg="http://www.w3.org/2000/svg"
   xmlns="http://www.w3.org/2000/svg"
   xmlns:sodipodi="http://sodipodi.sourceforge.net/DTD/sodipodi-0.dtd"
   xmlns:inkscape="http://www.inkscape.org/namespaces/inkscape"
   width="32"
   height="32"
   id="svg2"
   version="1.1"
   inkscape:version="0.92.3 (2405546, 2018-03-11)"
   sodipodi:docname="icon-twitter-black.svg">
  <defs
     id="defs4" />
  <sodipodi:namedview
     id="base"
     pagecolor="#ffffff"
     bordercolor="#666666"
     borderopacity="1.0"
     inkscape:pageopacity="0.0"
     inkscape:pageshadow="2"
     inkscape:zoom="7.5450206"
     inkscape:cx="-24.800288"
     inkscape:cy="12.187563"
     inkscape:document-units="px"
     inkscape:current-layer="svg2"
     showgrid="false"
     inkscape:window-width="1920"
     inkscape:window-height="1017"
     inkscape:window-x="1912"
     inkscape:window-y="-8"
     inkscape:window-maximized="1">
    <inkscape:grid
       type="xygrid"
       id="grid816" />
  </sodipodi:namedview>
  <metadata
     id="metadata7">
    <rdf:RDF>
      <cc:Work
         rdf:about="">
        <dc:format>image/svg+xml</dc:format>
        <dc:type
           rdf:resource="http://purl.org/dc/dcmitype/StillImage" />
        <dc:title></dc:title>
      </cc:Work>
    </rdf:RDF>
  </metadata>
  <path
     d="m 7.5e-6,26.067986 c 0.5203248,0.05204 1.040649,0.07804 1.560976,0.07804 3.052569,0 5.775603,-0.936584 8.169105,-2.809756 -1.42223,-0.0174 -2.697026,-0.450946 -3.82439,-1.300812 -1.127376,-0.849862 -1.89919,-1.93387 -2.315446,-3.252032 0.346878,0.06938 0.754466,0.10408 1.222764,0.10406 0.60704,6e-6 1.18807,-0.07804 1.743088,-0.234146 -1.526292,-0.294832 -2.783742,-1.049304 -3.772356,-2.263402 -0.988621,-1.214084 -1.491601,-2.601616 -1.508944,-4.162602 v -0.07804 c 0.91924,0.520338 1.916528,0.789172 2.99187,0.806504 -0.9019,-0.589688 -1.61301,-1.370176 -2.133334,-2.341462 -0.520326,-0.9712575 -0.789161,-2.0119075 -0.806504,-3.1219515 -10e-7,-1.179384 0.303522,-2.280738 0.91057,-3.304064 1.630348,2.029286 3.624926,3.642292 5.98374,4.839024 2.3587965,1.1967615 4.8737005,1.8731835 7.5447145,2.0292675 -0.12142,-0.572344 -0.18212,-1.0753235 -0.18212,-1.5089435 -1.6e-5,-1.803776 0.641718,-3.347406 1.925201,-4.630894 1.28345,-1.283448 2.835752,-1.92518 4.65691,-1.925202 1.890492,2.2e-5 3.486155,0.693788 4.786992,2.0813 1.508916,-0.312174 2.896448,-0.849844 4.162602,-1.613008 -0.485667,1.57834 -1.439596,2.79243 -2.861787,3.642276 1.266094,-0.15608 2.514874,-0.502962 3.746341,-1.04065 -0.832551,1.30083 -1.916561,2.436872 -3.252034,3.40813 v 0.8585355 c -2.8e-5,1.751776 -0.251517,3.503534 -0.754469,5.255286 -0.503011,1.751768 -1.283496,3.434152 -2.341465,5.047154 -1.058019,1.61301 -2.315469,3.043904 -3.772358,4.292682 -1.45693,1.24878 -3.200018,2.246068 -5.229268,2.99187 -2.029284,0.745796 -4.223317,1.110024 -6.582114,1.092684 C 6.4433545,29.00783 3.0872605,28.027884 -5e-7,26.067996"
     id="path3016"
     inkscape:connector-curvature="0"
     style="fill:#000000;fill-opacity:1;stroke:none;stroke-width:0.5" />
</svg>
