<?xml version="1.0" encoding="UTF-8" standalone="no"?>
<!-- Created with Inkscape (http://www.inkscape.org/) -->

<svg
   xmlns:dc="http://purl.org/dc/elements/1.1/"
   xmlns:cc="http://creativecommons.org/ns#"
   xmlns:rdf="http://www.w3.org/1999/02/22-rdf-syntax-ns#"
   xmlns:svg="http://www.w3.org/2000/svg"
   xmlns="http://www.w3.org/2000/svg"
   xmlns:sodipodi="http://sodipodi.sourceforge.net/DTD/sodipodi-0.dtd"
   xmlns:inkscape="http://www.inkscape.org/namespaces/inkscape"
   width="32"
   height="32"
   id="svg2"
   version="1.1"
   inkscape:version="0.92.3 (2405546, 2018-03-11)"
   sodipodi:docname="icon-phone-black.svg">
  <defs
     id="defs4" />
  <sodipodi:namedview
     id="base"
     pagecolor="#ffffff"
     bordercolor="#666666"
     borderopacity="1.0"
     inkscape:pageopacity="0.0"
     inkscape:pageshadow="2"
     inkscape:zoom="2.6675676"
     inkscape:cx="-157.2847"
     inkscape:cy="-1.4210855e-014"
     inkscape:document-units="px"
     inkscape:current-layer="svg2"
     showgrid="false"
     inkscape:window-width="1920"
     inkscape:window-height="1017"
     inkscape:window-x="-8"
     inkscape:window-y="-8"
     inkscape:window-maximized="1" />
  <metadata
     id="metadata7">
    <rdf:RDF>
      <cc:Work
         rdf:about="">
        <dc:format>image/svg+xml</dc:format>
        <dc:type
           rdf:resource="http://purl.org/dc/dcmitype/StillImage" />
        <dc:title />
      </cc:Work>
    </rdf:RDF>
  </metadata>
  <path
     d="M 0.0810962,6.2786893 C 0.1343697,5.8258851 0.3341467,5.3996943 0.6804277,5.0001154 L 5.4750797,0.205463 c 0.372912,-0.3196134 0.6526,-0.2663395 0.839065,0.1598218 l 3.8756773,7.2718893 c 0.213085,0.4262132 0.146492,0.8390857 -0.1997773,1.2386185 l -1.758039,1.7580394 c -0.319652,0.319662 -0.506111,0.732535 -0.559377,1.238618 -8e-6,0.799126 0.412865,1.824648 1.238619,3.076569 0.825736,1.251951 1.6381623,2.317428 2.4372823,3.196434 l 1.238618,1.278574 c 0.372904,0.372928 0.852369,0.825755 1.438396,1.358485 0.585998,0.532748 1.544928,1.251945 2.876791,2.157594 1.33183,0.905663 2.397306,1.358491 3.196435,1.358485 0.506082,6e-6 0.932272,-0.173135 1.278574,-0.519421 l 2.077683,-2.077683 c 0.372893,-0.372909 0.772447,-0.426182 1.198663,-0.159821 l 6.992201,4.115409 c 0.186427,0.106553 0.292974,0.239737 0.319643,0.399555 0.0266,0.159826 -0.02667,0.319646 -0.159821,0.479465 l -4.794653,4.794652 c -0.399581,0.346279 -0.825772,0.546056 -1.278574,0.599332 -1.305235,0.186456 -2.783585,-2e-6 -4.435053,-0.559376 -1.651511,-0.559377 -3.169816,-1.278574 -4.55492,-2.157594 C 15.357376,28.334092 14.065485,27.415117 12.866836,26.456184 11.668161,25.497258 10.709232,24.69815 9.9900447,24.058858 L 8.9512027,23.059972 7.8724067,21.94122 C 7.4195707,21.461763 6.6604177,20.542789 5.5949467,19.184295 4.5294637,17.825822 3.5838527,16.493976 2.7581107,15.188752 1.9323626,13.883557 1.2398024,12.391889 0.6804277,10.713743 0.1210513,9.0356353 -0.0787257,7.5572857 0.0810962,6.2786893"
     id="path2990"
     inkscape:connector-curvature="0"
     style="stroke-width:1" />
</svg>
