<?xml version="1.0" encoding="UTF-8" standalone="no"?>
<!-- Created with Inkscape (http://www.inkscape.org/) -->

<svg
   xmlns:dc="http://purl.org/dc/elements/1.1/"
   xmlns:cc="http://creativecommons.org/ns#"
   xmlns:rdf="http://www.w3.org/1999/02/22-rdf-syntax-ns#"
   xmlns:svg="http://www.w3.org/2000/svg"
   xmlns="http://www.w3.org/2000/svg"
   xmlns:sodipodi="http://sodipodi.sourceforge.net/DTD/sodipodi-0.dtd"
   xmlns:inkscape="http://www.inkscape.org/namespaces/inkscape"
   width="32"
   height="32"
   id="svg3059"
   version="1.1"
   inkscape:version="0.48.3.1 r9886"
   sodipodi:docname="New document 5">
  <defs
     id="defs3061" />
  <sodipodi:namedview
     id="base"
     pagecolor="#ffffff"
     bordercolor="#666666"
     borderopacity="1.0"
     inkscape:pageopacity="0.0"
     inkscape:pageshadow="2"
     inkscape:zoom="2.2689655"
     inkscape:cx="-32.773556"
     inkscape:cy="4.2857143"
     inkscape:document-units="px"
     inkscape:current-layer="layer1"
     showgrid="false"
     inkscape:window-width="1366"
     inkscape:window-height="722"
     inkscape:window-x="0"
     inkscape:window-y="24"
     inkscape:window-maximized="1" />
  <metadata
     id="metadata3064">
    <rdf:RDF>
      <cc:Work
         rdf:about="">
        <dc:format>image/svg+xml</dc:format>
        <dc:type
           rdf:resource="http://purl.org/dc/dcmitype/StillImage" />
        <dc:title></dc:title>
      </cc:Work>
    </rdf:RDF>
  </metadata>
  <g
     inkscape:label="Layer 1"
     inkscape:groupmode="layer"
     id="layer1"
     transform="translate(0,-1020.3622)">
    <g
       style="font-size:17.03940392px;font-style:normal;font-variant:normal;font-weight:normal;font-stretch:normal;line-height:125%;letter-spacing:0px;word-spacing:0px;fill:#000000;fill-opacity:1;stroke:none;font-family:social-icons;-inkscape-font-specification:social-icons"
       id="text3067">
      <path
         d="m 8,1042.2834 c 0,0.7156 0.3521473,1.329 1.056443,1.8402 0.7042936,0.5112 1.556263,0.7668 2.555911,0.7668 0.99964,0 1.857289,-0.2556 2.57295,-0.7668 0.715648,-0.5112 1.067795,-1.1246 1.056443,-1.8402 -8e-6,-0.7271 -0.352155,-1.3462 -1.056443,-1.8573 -0.704301,-0.5112 -1.56195,-0.7668 -2.57295,-0.7668 l -0.05112,0 c -0.02272,0 -0.03976,0.01 -0.05112,0.017 -0.272633,-0.2499 -0.408949,-0.5225 -0.408945,-0.8179 -4e-6,-0.2953 0.136312,-0.5963 0.408945,-0.9031 0.806528,-0.045 1.488103,-0.3578 2.044729,-0.9371 0.556614,-0.5794 0.834924,-1.2666 0.83493,-2.0618 -6e-6,-0.3181 -0.03976,-0.602 -0.119275,-0.852 0.318062,-0.057 0.567973,-0.1363 0.749733,-0.2385 l 0,-1.9595 c -0.545267,0.3635 -1.164365,0.5452 -1.857295,0.5452 l -0.119275,0 c -0.522547,-0.3521 -1.096206,-0.5282 -1.72098,-0.5282 -0.851973,0 -1.5789867,0.2954 -2.1810439,0.886 -0.6020595,0.5908 -0.9030887,1.3064 -0.9030884,2.147 -3e-7,0.5339 0.1363148,1.0281 0.4089456,1.4824 0.2726296,0.4544 0.6361365,0.8179 1.0905219,1.0906 -0.3180703,0.4089 -0.4771046,0.8235 -0.4771033,1.2438 -1.3e-6,0.4203 0.1476734,0.852 0.4430245,1.295 -0.5225429,0.2386 -0.937168,0.551 -1.2438765,0.9372 C 8.1533545,1041.3916 8,1041.8176 8,1042.2834 m 2.061768,-7.3611 c -2e-6,-0.3748 0.124953,-0.6986 0.374867,-0.9712 0.249908,-0.2726 0.533898,-0.4033 0.85197,-0.3919 0.340784,0 0.630454,0.1306 0.86901,0.3919 0.238547,0.2613 0.357823,0.585 0.357827,0.9712 -4e-6,0.3863 -0.11928,0.7043 -0.357827,0.9542 -0.238556,0.25 -0.528226,0.3863 -0.86901,0.409 -0.329431,0 -0.613421,-0.1363 -0.85197,-0.409 -0.238554,-0.2726 -0.36351,-0.5907 -0.374867,-0.9542 m 0.05112,7.3611 c -2e-6,-0.3068 0.147673,-0.568 0.443025,-0.7839 0.295346,-0.2158 0.647494,-0.318 1.056443,-0.3067 0.408941,0.011 0.766768,0.1136 1.073482,0.3067 0.306704,0.1932 0.454379,0.4544 0.443025,0.7839 -6e-6,0.2953 -0.14768,0.5509 -0.443025,0.7667 -0.295354,0.2159 -0.653181,0.3238 -1.073482,0.3238 -0.420309,0 -0.772456,-0.1079 -1.056443,-0.3238 -0.283993,-0.2158 -0.431667,-0.4714 -0.443025,-0.7667 m 5.640043,-13.0522 c -8e-6,-0.3862 0.136307,-0.7157 0.408945,-0.9883 0.272623,-0.2726 0.596371,-0.4033 0.971246,-0.3919 0.374858,0.011 0.704286,0.142 0.988286,0.3919 0.28398,0.2499 0.420295,0.5793 0.408946,0.9883 -0.01137,0.4089 -0.147686,0.7384 -0.408946,0.9883 -0.261281,0.2499 -0.590709,0.3862 -0.988286,0.4089 -0.397594,0.023 -0.721343,-0.1136 -0.971246,-0.4089 -0.249919,-0.2954 -0.386234,-0.6248 -0.408945,-0.9883 m 0.323748,11.0245 0,-8.1619 2.283281,0 0,8.1619 -2.283281,0 m 3.084133,-6.4239 0.937167,0 0,4.8562 c 0.04543,0.3408 0.159022,0.6305 0.340788,0.869 0.181741,0.2386 0.374854,0.4204 0.57934,0.5453 0.204459,0.125 0.420291,0.2158 0.647497,0.2726 0.227178,0.057 0.397572,0.097 0.511182,0.1193 l 0.340788,0 c 0.306695,0 0.585005,-0.045 0.834931,-0.1363 0.249896,-0.091 0.41461,-0.1817 0.494143,-0.2726 l 0.119275,-0.1534 L 24,1038.245 c -0.477119,0.1477 -0.846305,0.2215 -1.107561,0.2215 -0.05681,0 -0.107931,-0.01 -0.153355,-0.017 -0.261285,-0.034 -0.414639,-0.125 -0.460064,-0.2726 l -0.06816,-0.2216 c -1.4e-5,-0.034 -0.0057,-0.057 -0.01704,-0.068 l 0,-4.0554 1.550586,0 0,-1.738 -1.550586,0 0,-1.5847 -2.095846,0 0,1.5847 -0.937167,0 0,1.738"
         style=""
         id="path3072" />
    </g>
  </g>
</svg>
