<?xml version="1.0" encoding="UTF-8" standalone="no"?>
<svg
   xmlns:dc="http://purl.org/dc/elements/1.1/"
   xmlns:cc="http://creativecommons.org/ns#"
   xmlns:rdf="http://www.w3.org/1999/02/22-rdf-syntax-ns#"
   xmlns:svg="http://www.w3.org/2000/svg"
   xmlns="http://www.w3.org/2000/svg"
   xmlns:xlink="http://www.w3.org/1999/xlink"
   xmlns:sodipodi="http://sodipodi.sourceforge.net/DTD/sodipodi-0.dtd"
   xmlns:inkscape="http://www.inkscape.org/namespaces/inkscape"
   inkscape:version="1.0 (4035a4fb49, 2020-05-01)"
   sodipodi:docname="r-v3.svg"
   id="svg18"
   version="1.1"
   viewBox="0 0 640 320.00001"
   height="320"
   width="640">
  <metadata
     id="metadata22">
    <rdf:RDF>
      <cc:Work
         rdf:about="">
        <dc:format>image/svg+xml</dc:format>
        <dc:type
           rdf:resource="http://purl.org/dc/dcmitype/StillImage" />
        <dc:title />
      </cc:Work>
    </rdf:RDF>
  </metadata>
  <sodipodi:namedview
     inkscape:document-rotation="0"
     inkscape:guide-bbox="true"
     showguides="false"
     inkscape:measure-end="640,283"
     inkscape:measure-start="200,283"
     inkscape:current-layer="svg18"
     inkscape:window-maximized="1"
     inkscape:window-y="-8"
     inkscape:window-x="-8"
     inkscape:cy="147.04964"
     inkscape:cx="214.82294"
     inkscape:zoom="1"
     showgrid="false"
     id="namedview20"
     inkscape:window-height="1017"
     inkscape:window-width="1920"
     inkscape:pageshadow="2"
     inkscape:pageopacity="0"
     guidetolerance="10"
     gridtolerance="10"
     objecttolerance="10"
     borderopacity="1"
     bordercolor="#666666"
     pagecolor="#ffffff">
    <sodipodi:guide
       inkscape:color="rgb(0,0,255)"
       inkscape:label=""
       inkscape:locked="false"
       id="guide839"
       orientation="1,0"
       position="640.00001,149.67611" />
    <sodipodi:guide
       inkscape:locked="false"
       id="guide1014"
       orientation="0,1"
       position="418.05699,159.15876" />
    <sodipodi:guide
       inkscape:color="rgb(0,0,255)"
       inkscape:label=""
       inkscape:locked="false"
       id="guide861"
       orientation="1,0"
       position="160,171.18007" />
    <sodipodi:guide
       inkscape:color="rgb(0,0,255)"
       inkscape:label=""
       inkscape:locked="false"
       id="guide881"
       orientation="1,0"
       position="320,187.00251" />
    <sodipodi:guide
       inkscape:color="rgb(0,0,255)"
       inkscape:label=""
       inkscape:locked="false"
       id="guide883"
       orientation="1,0"
       position="80.000001,199.00001" />
    <sodipodi:guide
       inkscape:color="rgb(0,0,255)"
       inkscape:label=""
       inkscape:locked="false"
       id="guide887"
       orientation="0,1"
       position="692.00001,240" />
    <sodipodi:guide
       inkscape:color="rgb(0,0,255)"
       inkscape:label=""
       inkscape:locked="false"
       id="guide891"
       orientation="0,1"
       position="567,80.000001" />
    <sodipodi:guide
       inkscape:color="rgb(0,0,255)"
       inkscape:label=""
       inkscape:locked="false"
       id="guide893"
       orientation="1,0"
       position="240,134" />
    <sodipodi:guide
       inkscape:color="rgb(0,0,255)"
       inkscape:label=""
       inkscape:locked="false"
       id="guide913"
       orientation="1,0"
       position="400.00001,297.00001" />
    <sodipodi:guide
       inkscape:color="rgb(0,0,255)"
       inkscape:label=""
       inkscape:locked="false"
       id="guide915"
       orientation="1,0"
       position="480.00001,302.00001" />
    <sodipodi:guide
       inkscape:color="rgb(0,0,255)"
       inkscape:label=""
       inkscape:locked="false"
       id="guide917"
       orientation="1,0"
       position="560.00001,323.00001" />
    <sodipodi:guide
       inkscape:color="rgb(0,0,255)"
       inkscape:label=""
       inkscape:locked="false"
       id="guide852"
       orientation="1,0"
       position="200,226.00001" />
  </sodipodi:namedview>
  <defs
     id="defs8">
    <linearGradient
       id="a">
      <stop
         id="stop2"
         stop-opacity=".4"
         offset="0" />
      <stop
         id="stop4"
         stop-opacity="0"
         offset="1" />
    </linearGradient>
    <radialGradient
       gradientUnits="userSpaceOnUse"
       gradientTransform="matrix(0.99995566,-0.26793714,5.3587221,19.99903,-4987.0388,-17619.918)"
       r="8"
       fy="892.362"
       fx="248"
       cy="892.362"
       cx="248"
       id="b"
       xlink:href="#a" />
  </defs>
  <path
     style="font-size:197.101px;line-height:125%;font-family:sans-serif;letter-spacing:0;word-spacing:0;stroke-width:1.03523"
     d="m 56.351476,93.21515 c -3.85104,0 -8.499204,0.132509 -13.946562,0.398562 -5.445287,0.265018 -10.161776,0.397527 -14.147395,0.397527 l -3.126382,-0.05176 11.69391,43.638911 v -12.30263 c 0,-6.5095 0.06729,-11.29017 0.199799,-14.34512 0.267088,-3.1885 0.532106,-5.18338 0.797124,-5.9805 0.399597,-0.92963 0.864413,-1.45967 1.395484,-1.59425 3.321004,-0.9286 7.971239,-1.39341 13.949668,-1.39341 18.597831,0 27.896229,9.23111 27.896229,27.69539 0,7.70519 -2.52388,13.88445 -7.571641,18.53365 -4.915252,4.64816 -9.697995,6.97328 -14.34823,6.97328 h -4.981506 c -5.786913,0 -10.121403,-0.48655 -13.010718,-1.44931 l 2.694693,10.06239 c 2.293025,0.0932 4.01357,0.3437 5.13472,0.75157 1.461738,0.66462 2.789933,1.52696 3.985619,2.59014 1.328195,1.06214 2.788898,2.65639 4.383146,4.78274 1.726757,2.12429 3.188495,4.11813 4.383146,5.9774 1.32923,1.72882 3.323075,4.64816 5.979464,8.76836 2.788899,3.98562 5.246525,7.43706 7.370808,10.3595 13.683615,19.12787 29.824858,28.69439 48.421648,28.69439 2.12532,0 3.91937,-0.1998 5.38111,-0.59836 0.39856,-0.79712 0.59629,-1.79301 0.59629,-2.9887 0,-1.06317 -0.1967,-1.99281 -0.59629,-2.78993 -7.97124,0 -18.33385,-6.97535 -31.085763,-20.92191 -8.633783,-9.43298 -16.27375,-21.12378 -22.914723,-35.07138 -0.531071,-0.79713 -0.132509,-1.45967 1.195686,-1.99178 7.174114,-3.321 12.819201,-8.03645 16.936294,-14.14739 4.251672,-6.11094 6.376991,-11.95686 6.376991,-17.53673 0,-6.50846 -1.461739,-12.2198 -4.384182,-17.13505 -2.922442,-4.91526 -6.642008,-8.70108 -11.159734,-11.35643 -4.515655,-2.657425 -9.099635,-4.651269 -13.747798,-5.979464 -4.650235,-1.32923 -9.234215,-1.991775 -13.749869,-1.991775 z"
     font-size="197.101"
     letter-spacing="0"
     word-spacing="0"
     id="path12"
     inkscape:connector-curvature="0" />
  <path
     d="M 0.00103031,0.01584159 85.740502,320 A 165.63613,8.2818064 75 0 0 50.870991,157.86293 165.63613,8.2818064 75 0 0 -4.9208e-6,0.01480636 Z"
     id="path14"
     style="fill:url(#b);stroke-width:1.03523"
     inkscape:connector-curvature="0" />
  <path
     d="m 252.55455,161.96165 h -17.5321 q -0.50091,-0.62615 -0.91834,-1.37753 -0.3757,-0.79311 -1.37753,-3.13072 -1.16881,-2.67156 -2.54632,-6.84587 -1.29404,-3.79862 -2.21239,-5.96927 -0.91835,-2.17064 -2.21238,-3.67339 -1.29404,-1.50275 -3.0055,-1.62797 -2.37936,0.16697 -6.88762,0.16697 v 22.45778 H 200 V 98.428669 h 5.46835 q 1.50275,0 6.26146,-0.250459 0.66789,-0.04177 4.42477,-0.20872 3.75688,-0.208711 8.4321,-0.208711 6.26147,0 11.56283,1.836696 5.30138,1.836695 8.68257,6.344945 3.42293,4.46651 3.42293,11.98027 0,13.56651 -10.06008,18.28347 2.17064,1.71147 3.75688,4.59174 1.62797,2.88028 3.8821,8.01467 1.29404,3.00551 2.17064,4.92569 0.91835,1.87844 1.92018,3.63165 z m -36.69218,-33.47796 q 1.21056,0.16698 3.67339,0.25046 2.50459,0.0834 4.13257,0.0418 4.63348,0 6.9711,-2.92202 2.33761,-2.96375 2.33761,-7.63898 0,-9.22523 -10.35229,-9.22523 -4.04907,0 -6.76238,0.75138 z"
     style="font-style:normal;font-variant:normal;font-weight:800;font-stretch:normal;font-size:96px;line-height:1.25;font-family:'Merriweather Sans';-inkscape-font-specification:'Merriweather Sans Ultra-Bold';letter-spacing:0px;word-spacing:0px;fill:#000000;fill-opacity:1;stroke:none;stroke-width:0.890519"
     id="path929"
     inkscape:connector-curvature="0" />
  <path
     d="m 250.69003,137.75066 q 0,-7.63899 3.08899,-13.02384 3.13072,-5.42661 8.68256,-8.2234 5.55182,-2.79678 12.85687,-2.79678 8.30687,0 13.60825,3.2977 5.30137,3.29771 7.68073,8.84953 2.42109,5.55184 2.42109,12.60642 0,7.68073 -3.08898,13.14907 -3.08899,5.42661 -8.64083,8.22339 -5.55182,2.79679 -12.85687,2.79679 -8.34862,0 -13.64999,-3.29771 -5.30137,-3.33945 -7.72247,-8.89127 -2.37935,-5.59358 -2.37935,-12.6899 z m 32.2674,0.66789 q 0,-6.34495 -1.87843,-10.14358 -1.8367,-3.84036 -6.05276,-3.84036 -4.50825,0 -6.38668,3.25596 -1.87845,3.21422 -1.87845,9.9766 0,6.47018 1.87845,10.39403 1.92018,3.92385 6.13623,3.92385 4.46651,0 6.30321,-3.25596 1.87843,-3.2977 1.87843,-10.31054 z"
     style="font-style:normal;font-variant:normal;font-weight:800;font-stretch:normal;font-size:96px;line-height:1.25;font-family:'Merriweather Sans';-inkscape-font-specification:'Merriweather Sans Ultra-Bold';letter-spacing:0px;word-spacing:0px;fill:#000000;fill-opacity:1;stroke:none;stroke-width:0.890519"
     id="path931"
     inkscape:connector-curvature="0" />
  <path
     d="m 332.58997,113.70664 q 5.21788,0 9.47568,2.54632 4.29954,2.50459 6.84586,7.63899 2.54634,5.09266 2.54634,12.52293 0,7.97293 -3.13074,13.98393 -3.08899,5.96927 -8.80779,9.22523 -5.67706,3.21421 -13.2743,3.21421 -4.59174,0 -9.51743,-0.66789 -4.92568,-0.62614 -8.51559,-1.50275 -3.5899,-0.8766 -4.21605,-1.37752 V 92.626375 h 15.48669 v 17.156415 l -0.33395,8.7243 q 5.25963,-4.80045 13.44128,-4.80045 z m 2.71329,23.45962 q 0,-6.55367 -2.08715,-9.26697 -2.08715,-2.71331 -5.92752,-2.71331 -2.25412,0 -4.42477,0.79313 -2.12889,0.75137 -3.38118,1.71146 v 23.33439 q 1.25229,1.41927 6.51192,1.41927 2.67156,0 4.80045,-1.79496 2.1289,-1.79495 3.29771,-5.25963 1.21054,-3.46467 1.21054,-8.22338 z"
     style="font-style:normal;font-variant:normal;font-weight:800;font-stretch:normal;font-size:96px;line-height:1.25;font-family:'Merriweather Sans';-inkscape-font-specification:'Merriweather Sans Ultra-Bold';letter-spacing:0px;word-spacing:0px;fill:#000000;fill-opacity:1;stroke:none;stroke-width:0.890519"
     id="path933"
     inkscape:connector-curvature="0" />
  <path
     d="m 398.82234,133.03369 q 0,5.25962 -0.50092,8.76604 h -27.92613 q 0.50092,5.17615 3.50642,7.55551 3.0055,2.33761 8.39036,2.33761 3.38119,0 7.17982,-0.70964 3.84036,-0.75137 5.59357,-1.71146 l 2.37935,8.22339 q -2.58807,2.08715 -7.68073,3.63165 -5.09265,1.50275 -11.10366,1.50275 -7.59724,0 -12.94036,-2.92202 -5.30137,-2.96376 -8.05641,-8.47385 -2.7133,-5.55182 -2.7133,-13.2743 0,-6.97109 2.83853,-12.48118 2.83853,-5.51009 8.22339,-8.64082 5.4266,-3.13073 12.81512,-3.13073 8.76605,0 14.31789,4.38302 5.59357,4.38303 5.67706,14.94403 z m -14.31789,1.04358 q 0.0418,-0.62615 0.0418,-1.79496 0,-4.38302 -1.46101,-6.47017 -1.41927,-2.12891 -4.59174,-2.12891 -3.46468,0 -5.42661,2.37936 -1.96192,2.33762 -2.54632,8.01468 z"
     style="font-style:normal;font-variant:normal;font-weight:800;font-stretch:normal;font-size:96px;line-height:1.25;font-family:'Merriweather Sans';-inkscape-font-specification:'Merriweather Sans Ultra-Bold';letter-spacing:0px;word-spacing:0px;fill:#000000;fill-opacity:1;stroke:none;stroke-width:0.890519"
     id="path935"
     inkscape:connector-curvature="0" />
  <path
     d="m 433.0795,113.62315 q 2.58807,0 3.46467,0.58441 v 15.23622 q -1.96192,-1.12706 -5.09266,-1.12706 -6.72063,0 -10.81145,4.54999 v 29.09494 h -15.48669 v -47.58712 h 13.56651 l 0.66789,7.63898 q 0.96008,-2.4211 2.96375,-4.34128 2.04542,-1.92018 4.80046,-2.96376 2.79678,-1.08532 5.92752,-1.08532 z"
     style="font-style:normal;font-variant:normal;font-weight:800;font-stretch:normal;font-size:96px;line-height:1.25;font-family:'Merriweather Sans';-inkscape-font-specification:'Merriweather Sans Ultra-Bold';letter-spacing:0px;word-spacing:0px;fill:#000000;fill-opacity:1;stroke:none;stroke-width:0.890519"
     id="path937"
     inkscape:connector-curvature="0" />
  <path
     d="m 447.06343,124.5181 h -5.51009 v -8.18165 q 3.67339,-1.08532 5.51009,-2.00367 1.8367,-0.96009 2.7133,-2.79678 0.54266,-1.08532 2.1289,-5.09266 l 1.21055,-2.92201 h 9.39219 v 10.8532 h 12.35596 v 10.14357 h -12.35596 v 16.94769 q 0,4.42477 0.45918,6.42844 0.50092,2.00366 1.58624,2.58807 1.12706,0.5844 3.46467,0.5844 1.62799,0 3.75688,-0.54266 2.1289,-0.5844 3.21422,-1.33577 l 1.8367,8.59907 q -1.21056,1.12706 -3.6734,2.25413 -2.46284,1.12706 -5.67706,1.87843 -3.21422,0.70964 -6.51192,0.70964 -5.05092,0 -8.1399,-1.66972 -3.04725,-1.71147 -4.42477,-5.09266 -1.33578,-3.42293 -1.33578,-8.72431 z"
     style="font-style:normal;font-variant:normal;font-weight:800;font-stretch:normal;font-size:96px;line-height:1.25;font-family:'Merriweather Sans';-inkscape-font-specification:'Merriweather Sans Ultra-Bold';letter-spacing:0px;word-spacing:0px;fill:#000000;fill-opacity:1;stroke:none;stroke-width:0.890519"
     id="path939"
     inkscape:connector-curvature="0" />
  <path
     d="m 248.29676,179.07686 -18.15825,48.25502 H 218.07476 L 200,179.07686 h 14.06742 l 7.2633,23.37613 3.04724,11.60458 2.88028,-11.60458 7.2633,-23.37613 z"
     style="font-style:normal;font-variant:normal;font-weight:bold;font-stretch:normal;font-size:96px;line-height:1.25;font-family:'Merriweather Sans';-inkscape-font-specification:'Merriweather Sans Bold';letter-spacing:0px;word-spacing:0px;fill:#000000;fill-opacity:1;stroke:none;stroke-width:0.890519"
     id="path1061"
     inkscape:connector-curvature="0" />
  <path
     d="m 269.04307,178.15852 q 6.92935,0 11.06192,1.54449 4.17431,1.50276 6.21972,5.30137 2.04541,3.75688 2.04541,10.56101 v 31.76649 h -7.59724 q -1.87844,0 -2.83853,-0.25046 -0.9601,-0.25046 -1.50275,-1.16881 -0.54267,-0.91835 -0.54267,-2.92202 v -0.33394 q -2.17064,2.00367 -5.34311,3.33945 -3.17248,1.33578 -7.05458,1.33578 -4.59174,0 -8.13991,-1.96193 -3.50642,-2.00366 -5.46834,-5.51008 -1.92018,-3.54817 -1.92018,-8.01468 0,-4.17431 2.1289,-7.13807 2.17064,-2.96375 6.17797,-4.75871 6.21973,-2.75505 19.0766,-2.75505 v -3.0055 q 0,-2.67156 -0.70964,-3.92385 -0.66789,-1.25229 -2.62981,-1.71146 -1.92018,-0.45918 -6.09449,-0.45918 -2.00367,0 -6.09449,1.04358 -4.09082,1.00184 -7.01284,2.33762 l -2.88028,-8.34862 q 1.66973,-1.00184 4.8422,-2.17064 3.17248,-1.16881 6.9711,-1.96193 3.79862,-0.83486 7.30504,-0.83486 z m -1.08532,40.36557 q 2.08715,0 4.38303,-0.83486 2.29586,-0.87661 3.0055,-1.79496 v -11.35412 q -2.37936,0 -5.38486,0.54266 -2.96376,0.50092 -4.42477,1.16881 -1.87844,0.70963 -3.0055,1.92018 -1.12706,1.21055 -1.12706,3.58991 0,3.33944 1.79495,5.05091 1.83669,1.71147 4.75871,1.71147 z"
     style="font-style:normal;font-variant:normal;font-weight:bold;font-stretch:normal;font-size:96px;line-height:1.25;font-family:'Merriweather Sans';-inkscape-font-specification:'Merriweather Sans Bold';letter-spacing:0px;word-spacing:0px;fill:#000000;fill-opacity:1;stroke:none;stroke-width:0.890519"
     id="path1063"
     inkscape:connector-curvature="0" />
  <path
     d="m 304.96995,179.07686 0.25046,5.09266 q 2.88028,-2.17064 7.17981,-3.96559 4.29955,-1.79496 8.30688,-1.92018 5.1344,-0.16697 8.39036,1.62798 3.25596,1.75321 4.8422,5.88578 1.62798,4.09082 1.62798,11.02017 v 29.84631 H 322.5438 v -27.04953 q 0,-4.04907 -0.62615,-6.26146 -0.62614,-2.25413 -2.1289,-3.21421 -1.50275,-0.9601 -4.25779,-0.87661 -2.08716,0.0418 -4.71697,0.96009 -2.62981,0.91835 -4.63348,2.67156 v 33.77016 h -13.02385 v -47.58713 z"
     style="font-style:normal;font-variant:normal;font-weight:bold;font-stretch:normal;font-size:96px;line-height:1.25;font-family:'Merriweather Sans';-inkscape-font-specification:'Merriweather Sans Bold';letter-spacing:0px;word-spacing:0px;fill:#000000;fill-opacity:1;stroke:none;stroke-width:0.890519"
     id="path1065"
     inkscape:connector-curvature="0" />
  <path
     id="path1067"
     d="m 398.32227,163.38867 c -0.41603,0.21053 -0.85221,0.41736 -1.3086,0.61914 -10e-4,6.1e-4 -0.003,0.001 -0.004,0.002 -0.001,5.9e-4 -0.003,0.001 -0.004,0.002 -0.41069,0.18144 -0.83791,0.35884 -1.28125,0.5332 -0.0766,0.0303 -0.15092,0.0617 -0.22852,0.0918 -0.20543,0.0792 -0.42639,0.15468 -0.63867,0.23242 -0.79524,0.29264 -1.62367,0.57851 -2.51758,0.84961 -0.54391,0.1605 -1.09533,0.30819 -1.65234,0.44727 -0.0838,0.0208 -0.16977,0.0383 -0.25391,0.0586 -0.5057,0.1229 -1.01678,0.23839 -1.5332,0.34375 -6.2e-4,1.3e-4 -10e-4,-1.3e-4 -0.002,0 -1.17246,0.23916 -2.37387,0.42936 -3.60156,0.57812 v 8.42383 l 0.125,4.17383 c -2.36544,-0.89052 -4.96616,-1.33594 -7.80469,-1.33594 -4.78654,0 -9.01607,1.07204 -12.68946,3.21485 -3.64556,2.14281 -6.48412,5.17575 -8.51562,9.09961 -2.00367,3.92385 -3.00586,8.48742 -3.00586,13.6914 0,4.95351 0.84933,9.15666 2.54687,12.60742 1.72538,3.45076 4.02037,6.0383 6.88672,7.76368 2.86636,1.69755 6.03899,2.54687 9.51758,2.54687 3.42293,0 6.22,-0.54358 8.39063,-1.62891 2.19847,-1.11314 4.06316,-2.4494 5.59375,-4.00781 v 3.21485 c 0,0.97401 0.2491,1.61381 0.75,1.91992 0.52875,0.33395 1.32336,0.50195 2.38086,0.50195 h 8.84961 z m -20.33008,24.28711 c 1.69754,0 3.14515,0.0962 4.34179,0.29102 1.19663,0.16697 2.18369,0.51618 2.9629,1.04492 v 25.67187 c -1.05751,0.72355 -2.39179,1.32184 -4.00586,1.79493 -1.58624,0.47308 -3.22824,0.70898 -4.92579,0.70898 -3.00551,0 -5.31561,-1.02856 -6.92968,-3.08789 -1.58624,-2.05932 -2.3789,-5.53964 -2.37891,-10.4375 10e-6,-3.47859 0.4586,-6.41337 1.37695,-8.80664 0.94617,-2.39328 2.24092,-4.18813 3.88282,-5.38477 1.64189,-1.19663 3.53296,-1.79492 5.67578,-1.79492 z"
     style="font-style:normal;font-variant:normal;font-weight:bold;font-stretch:normal;font-size:96px;line-height:1.25;font-family:'Merriweather Sans';-inkscape-font-specification:'Merriweather Sans Bold';letter-spacing:0px;word-spacing:0px;fill:#000000;fill-opacity:1;stroke:none;stroke-width:0.890519"
     inkscape:connector-curvature="0" />
  <path
     d="m 443.87704,197.06814 q 0,6.011 -0.45916,8.93302 h -28.13485 q 0.37569,5.88577 3.6734,8.76605 3.33944,2.88027 9.0165,2.88027 2.7133,0 6.55366,-0.70963 3.88211,-0.75138 5.67706,-1.75321 l 2.12891,7.38852 q -2.46285,2.00367 -7.38854,3.38119 -4.92568,1.37752 -10.2688,1.37752 -7.17981,0 -12.23072,-2.92201 -5.05092,-2.92202 -7.63899,-8.43211 -2.58807,-5.55182 -2.58807,-13.2743 0,-7.01284 2.71331,-12.52293 2.71329,-5.51009 7.88944,-8.64081 5.21789,-3.13074 12.3977,-3.13074 5.17614,0 9.35045,1.87844 4.17431,1.87844 6.67889,6.05275 2.54633,4.17431 2.62981,10.72798 z m -12.10549,1.71146 q 0.0418,-0.62614 0.0418,-1.8367 0,-4.54999 -1.71147,-6.8876 -1.71146,-2.37936 -5.55182,-2.37936 -3.84037,0 -6.13624,2.54633 -2.25413,2.50459 -2.92202,8.55733 z"
     style="font-style:normal;font-variant:normal;font-weight:bold;font-stretch:normal;font-size:96px;line-height:1.25;font-family:'Merriweather Sans';-inkscape-font-specification:'Merriweather Sans Bold';letter-spacing:0px;word-spacing:0px;fill:#000000;fill-opacity:1;stroke:none;stroke-width:0.890519"
     id="path1069"
     inkscape:connector-curvature="0" />
  <path
     d="m 473.11113,178.28375 q 2.71329,0 3.71513,0.5844 v 12.56467 q -0.96009,-0.54266 -2.21238,-0.83487 -1.21056,-0.33394 -3.50642,-0.33394 -6.01101,0 -10.60275,4.29954 v 32.10043 h -13.02384 v -47.58712 h 11.56283 l 0.5844,6.51192 q 1.04359,-1.83669 3.08899,-3.50642 2.08716,-1.66972 4.80046,-2.71329 2.75505,-1.08532 5.59358,-1.08532 z"
     style="font-style:normal;font-variant:normal;font-weight:bold;font-stretch:normal;font-size:96px;line-height:1.25;font-family:'Merriweather Sans';-inkscape-font-specification:'Merriweather Sans Bold';letter-spacing:0px;word-spacing:0px;fill:#000000;fill-opacity:1;stroke:none;stroke-width:0.890519"
     id="path1071"
     inkscape:connector-curvature="0" />
  <path
     d="m 534.79349,163.131 v 11.85504 h -24.4197 v 13.44128 h 18.82613 v 11.56284 h -18.82613 v 14.52659 h 26.92429 v 12.14724 H 494.63664 V 163.131 Z"
     style="font-style:normal;font-variant:normal;font-weight:800;font-stretch:normal;font-size:96px;line-height:1.25;font-family:'Merriweather Sans';-inkscape-font-specification:'Merriweather Sans Ultra-Bold';letter-spacing:0px;word-spacing:0px;fill:#000000;fill-opacity:1;stroke:none;stroke-width:0.890519"
     id="path1073"
     inkscape:connector-curvature="0" />
  <path
     d="m 559.24103,157.28697 v 69.37702 h -15.48669 v -69.37702 z"
     style="font-style:normal;font-variant:normal;font-weight:800;font-stretch:normal;font-size:96px;line-height:1.25;font-family:'Merriweather Sans';-inkscape-font-specification:'Merriweather Sans Ultra-Bold';letter-spacing:0px;word-spacing:0px;fill:#000000;fill-opacity:1;stroke:none;stroke-width:0.890519"
     id="path1075"
     inkscape:connector-curvature="0" />
  <path
     d="m 566.62956,212.80528 q 0.83486,0.70964 3.08898,1.71147 2.29588,1.00184 5.30138,1.75321 3.0055,0.75138 5.92752,0.75138 3.50642,0 5.05091,-0.83487 1.58624,-0.83486 1.58624,-2.62981 0,-1.2523 -1.16881,-2.25413 -1.16881,-1.00184 -3.33945,-1.87844 -2.12889,-0.91834 -5.80228,-2.1289 -6.47018,-2.12889 -9.3922,-5.76054 -2.92202,-3.6734 -2.88027,-9.26697 0,-4.46651 2.58807,-7.59724 2.62981,-3.13073 7.09633,-4.67523 4.50825,-1.58624 10.10182,-1.58624 5.25963,0 9.26697,0.91835 4.04908,0.87661 6.05274,2.00367 l -1.37751,10.8532 q -0.91835,-0.79311 -2.7968,-1.62797 -1.87843,-0.87661 -4.21604,-1.41927 -2.29588,-0.5844 -4.46652,-0.5844 -3.92385,0 -5.59357,0.79311 -1.66973,0.79313 -1.71146,2.46285 0,1.25229 0.8766,2.17064 0.87661,0.91835 2.92201,1.8367 2.04542,0.8766 5.96927,2.08715 6.76238,2.17064 9.93485,5.55183 3.21422,3.33945 3.21422,8.76605 0,4.88394 -2.46284,8.30688 -2.46285,3.38118 -7.01284,5.13439 -4.50825,1.71147 -10.60274,1.71147 -3.71514,0 -7.2633,-0.62615 -3.54817,-0.5844 -6.26146,-1.461 -2.71331,-0.91835 -4.13258,-1.79496 z"
     style="font-style:normal;font-variant:normal;font-weight:800;font-stretch:normal;font-size:96px;line-height:1.25;font-family:'Merriweather Sans';-inkscape-font-specification:'Merriweather Sans Ultra-Bold';letter-spacing:0px;word-spacing:0px;fill:#000000;fill-opacity:1;stroke:none;stroke-width:0.890519"
     id="path1077"
     inkscape:connector-curvature="0" />
  <path
     d="m 610.23717,189.22044 h -5.51009 v -8.18165 q 3.67339,-1.08532 5.51009,-2.00366 1.8367,-0.9601 2.71331,-2.7968 0.54265,-1.08532 2.12889,-5.09265 l 1.21055,-2.92202 h 9.39219 v 10.8532 h 12.35596 v 10.14358 h -12.35596 v 16.94769 q 0,4.42477 0.45918,6.42844 0.50092,2.00367 1.58624,2.58807 1.12706,0.5844 3.46467,0.5844 1.62799,0 3.75688,-0.54266 2.1289,-0.5844 3.21422,-1.33578 L 640,222.48968 q -1.21056,1.12706 -3.67339,2.25412 -2.46285,1.12707 -5.67706,1.87845 -3.21423,0.70963 -6.51193,0.70963 -5.05091,0 -8.1399,-1.66973 -3.04724,-1.71146 -4.42477,-5.09266 -1.33578,-3.42293 -1.33578,-8.7243 z"
     style="font-style:normal;font-variant:normal;font-weight:800;font-stretch:normal;font-size:96px;line-height:1.25;font-family:'Merriweather Sans';-inkscape-font-specification:'Merriweather Sans Ultra-Bold';letter-spacing:0px;word-spacing:0px;fill:#000000;fill-opacity:1;stroke:none;stroke-width:0.890519"
     id="path1079"
     inkscape:connector-curvature="0" />
</svg>
